<?xml version="1.0" encoding="utf-8"?>
<!-- Generator: Adobe Illustrator 24.0.0, SVG Export Plug-In . SVG Version: 6.00 Build 0)  -->
<svg version="1.1" id="图层_1" xmlns="http://www.w3.org/2000/svg" xmlns:xlink="http://www.w3.org/1999/xlink" x="0px" y="0px"
	 viewBox="0 0 200 200" style="enable-background:new 0 0 200 200;" xml:space="preserve">
<style type="text/css">
	.st0{fill:#FFFFFF;}
</style>
<path class="st0" d="M12.7,149.4c0,0,8.8-6.1,15-6.1c11.7,0.4,11.9,7.3,17.4,7.3s7.6-7.3,18.1-7.3s11.4,7.3,18.1,7.3
	s6.7-7.3,17.2-7.3s10.9,7.3,18.8,7.3s3.8-7.3,16.4-7.3c12.6,0,12.6,7.3,18.6,7.3s7.2-7.3,16.7-7.3s12.6,7.3,17.9,7.3
	c0.5,3.8,0.5,7.6,0,11.4c-4.8,2.2-12.9-6.7-16.7-6.7s-10.5,7.1-18.1,7.1s-13.3-8.7-17.9-8.7c-4.5,0-5.7,8.7-17.9,8.7
	s-9.9-7.1-17.8-7.1s-5.8,7.1-16.9,7.1s-11.4-7.1-18.8-7.1s-6.2,7.1-15.5,7.1s-12.9-7.1-19.8-7.1s-9.8,7.1-14.8,7.1
	C12.9,159,12.7,149.4,12.7,149.4L12.7,149.4z"/>
</svg>
